<mxfile host="app.diagrams.net" modified="2024-07-19T22:25:48.366Z" agent="Mozilla/5.0 (Windows NT 10.0; Win64; x64) AppleWebKit/537.36 (KHTML, like Gecko) Chrome/126.0.0.0 Safari/537.36" version="24.7.1" etag="v0nmDnSM-pP3U7zZ2rDI" type="github">
  <diagram name="PÃ¡gina-1" id="Cc4eTh1VFjxTmH7wVIVS">
    <mxGraphModel>
      <root>
        <mxCell id="0" />
        <mxCell id="1" parent="0" />
      </root>
    </mxGraphModel>
  </diagram>
</mxfile>
